PathFileType	4	(X/Y/Z)	c:/Users/goper/Files/vsCode/490R/osim_files/C03/C03_SSW_03.trc
DataRate	CameraRate	NumFrames	NumMarkers	Units                	OrigDataRate	OrigDataStartFrame	OrigNumFrames
250.00	250.00	7	36	mm	250.0	2014	2301
                Frame#	Time	LPSIS			LASIS			LTH1			LTH2			LTH3			LTH4			LLFE			LMFE			LSH1			LSH2			LSH3			LSH4			LLMAL			LMMAL			LCAL			LMTP5			LTOE			LMTP1			RPSIS			RASIS			RTH1			RTH2			RTH3			RTH4			RLFE			RMFE			RSH1			RSH2			RSH3			RSH4			RLMAL			RMMAL			RCAL			RMTP1			RTOE			RMTP5		
		X1	Y1	Z1	X2	Y2	Z2	X3	Y3	Z3	X4	Y4	Z4	X5	Y5	Z5	X6	Y6	Z6	X7	Y7	Z7	X8	Y8	Z8	X9	Y9	Z9	X10	Y10	Z10	X11	Y11	Z11	X12	Y12	Z12	X13	Y13	Z13	X14	Y14	Z14	X15	Y15	Z15	X16	Y16	Z16	X17	Y17	Z17	X18	Y18	Z18	X19	Y19	Z19	X20	Y20	Z20	X21	Y21	Z21	X22	Y22	Z22	X23	Y23	Z23	X24	Y24	Z24	X25	Y25	Z25	X26	Y26	Z26	X27	Y27	Z27	X28	Y28	Z28	X29	Y29	Z29	X30	Y30	Z30	X31	Y31	Z31	X32	Y32	Z32	X33	Y33	Z33	X34	Y34	Z34	X35	Y35	Z35	X36	Y36	Z36

2014	8.05200	0.00000	0.00000	0.00000	-3682.88330	978.01776	361.64899	0.00000	0.00000	0.00000	0.00000	0.00000	0.00000	-3564.26538	629.78540	384.74609	-3549.53784	570.50873	375.22766	-3486.48779	489.89609	365.38815	-3480.08667	490.92172	254.25786	-3391.11523	324.41086	368.20175	0.00000	0.00000	0.00000	0.00000	0.00000	0.00000	-3438.61670	269.57947	362.23807	-3396.49023	110.68190	326.93918	-3410.60010	120.96168	247.76540	-3321.78052	76.90243	301.09973	-3519.98071	54.18732	345.96246	0.00000	0.00000	0.00000	0.00000	0.00000	0.00000	-3504.52148	1019.85016	197.82399	-3687.03296	985.35004	160.78616	0.00000	0.00000	0.00000	0.00000	0.00000	0.00000	-3742.96338	620.29443	114.77444	-3778.94556	569.76672	121.43330	-3837.13379	510.23929	146.08151	-3813.89746	529.08124	252.24028	-3817.08984	327.16653	121.83142	0.00000	0.00000	0.00000	0.00000	0.00000	0.00000	0.00000	0.00000	0.00000	-3807.13232	260.18539	157.84798	0.00000	0.00000	0.00000	0.00000	0.00000	0.00000	-3959.62695	89.52559	188.67827	0.00000	0.00000	0.00000	-3889.30518	154.47717	226.45396
2015	8.05600	-3496.64819	1029.53809	308.79575	-3688.19751	977.31085	361.37280	0.00000	0.00000	0.00000	0.00000	0.00000	0.00000	-3567.67603	629.40643	384.58237	-3552.68994	570.15930	375.05997	-3489.28003	489.84106	365.12094	-3483.09668	490.81348	253.93138	-3392.75391	324.81012	367.84262	-3389.23340	277.08612	360.03928	-3449.26904	313.03467	368.48843	-3439.88379	269.73169	362.01147	-3396.72363	111.10680	326.66708	-3410.91992	121.19424	247.49353	-3322.06201	77.49221	300.89886	-3519.91016	54.17698	346.29590	0.00000	0.00000	0.00000	0.00000	0.00000	0.00000	-3509.68433	1018.74237	197.15744	-3692.34570	984.23138	160.44560	0.00000	0.00000	0.00000	0.00000	0.00000	0.00000	-3747.31079	618.75256	114.63666	-3783.14404	568.23383	121.32095	-3841.52686	508.53769	146.25101	-3817.76782	527.39581	252.32584	0.00000	0.00000	0.00000	-3817.40918	257.85745	157.80878	-3865.46362	268.71613	135.86354	0.00000	0.00000	0.00000	0.00000	0.00000	0.00000	-3770.00562	238.52708	120.52821	-3826.03467	325.89230	121.68645	0.00000	0.00000	0.00000	1890.52319	2033.32947	354.46573	0.00000	0.00000	0.00000
2016	8.06000	0.00000	0.00000	0.00000	-3693.38379	976.52380	361.14478	0.00000	0.00000	0.00000	0.00000	0.00000	0.00000	-3571.25684	629.06049	384.46127	-3555.97778	569.85229	374.90771	-3492.15283	489.70221	364.83749	-3486.14258	490.64215	253.66046	-3396.25708	326.49796	367.88742	0.00000	0.00000	0.00000	-3454.57983	315.54181	370.00418	-3440.31226	269.44501	361.45621	-3397.20581	111.56631	326.47058	-3411.38525	121.49126	247.26427	-3322.25049	77.99438	300.66217	-3520.11768	54.21904	346.24576	0.00000	0.00000	0.00000	0.00000	0.00000	0.00000	-3516.06299	1017.32135	196.62465	-3697.68750	983.11108	160.22066	0.00000	0.00000	0.00000	0.00000	0.00000	0.00000	-3751.53027	617.15076	114.48027	-3787.46997	566.70300	121.14306	-3845.69873	506.72781	146.38354	-3821.72266	525.78137	252.43692	-3834.70972	324.47610	121.44394	0.00000	0.00000	0.00000	0.00000	0.00000	0.00000	-3875.28613	267.37112	135.87079	0.00000	0.00000	0.00000	-3772.06714	235.41861	120.05770	0.00000	0.00000	0.00000	0.00000	0.00000	0.00000	0.00000	0.00000	0.00000	1890.47864	2033.33765	354.39407
2017	8.06400	-3506.58228	1027.78052	307.10016	-3698.47485	975.74561	360.92822	0.00000	0.00000	0.00000	0.00000	0.00000	0.00000	-3574.73145	628.65601	384.38541	-3559.29321	569.53729	374.79846	-3494.62988	489.10184	364.36850	-3489.41797	490.46970	253.28610	-3398.09790	327.03107	367.57385	0.00000	0.00000	0.00000	0.00000	0.00000	0.00000	-3441.69653	269.59241	361.21133	-3397.88770	111.84693	326.49036	-3411.98779	121.85870	247.02647	-3322.40356	78.52528	300.37448	-3520.21704	54.22611	346.21817	0.00000	0.00000	0.00000	0.00000	0.00000	0.00000	-3521.42871	1015.76453	195.77800	-3703.13135	981.94775	159.97366	0.00000	0.00000	0.00000	0.00000	0.00000	0.00000	-3755.65015	615.52466	114.38274	-3791.57520	565.06464	121.04836	-3850.06909	505.07382	146.50340	-3825.47949	524.08246	252.52280	-3843.26782	323.15198	121.21714	0.00000	0.00000	0.00000	0.00000	0.00000	0.00000	-3885.07764	266.21960	135.72894	0.00000	0.00000	0.00000	0.00000	0.00000	0.00000	1890.49133	2033.00208	354.29602	0.00000	0.00000	0.00000	-3835.19751	515.68188	139.32089	0.00000	0.00000	0.00000
2018	8.06800	0.00000	0.00000	0.00000	-3703.69751	974.95886	360.71381	0.00000	0.00000	0.00000	0.00000	0.00000	0.00000	-3578.41016	628.31152	384.34952	-3562.73047	569.22876	374.72607	-3497.78271	489.12479	364.08218	-3492.71704	490.21143	253.01776	-3398.25439	326.37039	366.87720	0.00000	0.00000	0.00000	-3453.11694	311.63242	368.49713	-3443.17529	269.79910	361.00198	-3398.31274	112.30778	326.28937	-3412.52783	122.05304	246.96184	-3323.55444	78.73288	300.69052	-3520.34180	54.26263	346.18536	0.00000	0.00000	0.00000	0.00000	0.00000	0.00000	-3526.95410	1014.74866	195.14590	-3708.58936	980.72040	159.71295	0.00000	0.00000	0.00000	0.00000	0.00000	0.00000	-3759.74536	613.85345	114.32991	-3795.50684	563.34863	120.98197	-3854.34399	503.15921	146.54324	-3829.24487	522.41187	252.61951	-3851.77759	321.97580	120.90375	0.00000	0.00000	0.00000	0.00000	0.00000	0.00000	-3894.74731	265.02481	135.54176	-3889.43359	130.06593	143.65395	0.00000	0.00000	0.00000	0.00000	0.00000	0.00000	-3753.44824	205.58740	116.31459	0.00000	0.00000	0.00000	-3847.52393	251.16331	156.87329
2019	8.07200	0.00000	0.00000	0.00000	-3708.89478	974.23029	360.51651	0.00000	0.00000	0.00000	0.00000	0.00000	0.00000	-3582.02319	627.91827	384.33078	-3566.16309	568.89484	374.67410	-3501.43335	489.43970	363.97171	-3495.58960	489.94559	252.18645	-3400.26050	326.91235	366.56265	0.00000	0.00000	0.00000	-3456.68945	312.95532	368.89636	-3444.69434	269.96460	360.84802	-3398.71631	112.75356	326.16138	-3413.04102	122.44416	246.76965	-3326.35376	79.17152	301.76047	-3520.44043	54.25906	346.15125	0.00000	0.00000	0.00000	0.00000	0.00000	0.00000	-3532.35620	1013.44879	194.29202	-3714.00195	979.45575	159.48221	0.00000	0.00000	0.00000	0.00000	0.00000	0.00000	-3763.78296	612.16571	114.24185	-3799.37915	561.59424	120.88168	-3858.48511	501.35721	146.65242	-3832.75610	520.56226	252.67999	-3859.91870	320.63589	120.63517	0.00000	0.00000	0.00000	0.00000	0.00000	0.00000	-3904.33350	264.02521	135.44160	0.00000	0.00000	0.00000	-3755.54980	202.70033	115.79544	-3857.17529	249.14516	156.41861	0.00000	0.00000	0.00000	-3842.24316	511.86392	139.27330	0.00000	0.00000	0.00000
2020	8.07600	-3521.88403	1024.99609	304.52438	-3714.18945	973.54480	360.31219	0.00000	0.00000	0.00000	0.00000	0.00000	0.00000	-3585.63428	627.45612	384.31848	-3569.69336	568.50732	374.68518	-3504.14478	488.72305	363.64380	-3499.66626	489.66293	252.43214	-3402.31372	327.43292	366.32306	-3397.09277	280.08749	358.59158	-3460.39429	314.21628	369.51080	-3446.39478	270.20993	360.68918	-3399.17334	113.21850	326.01160	-3413.46631	122.78216	246.51076	-3324.03027	79.79180	300.38370	-3520.44385	54.15559	346.14114	0.00000	0.00000	0.00000	0.00000	0.00000	0.00000	-3537.80664	1012.06860	193.64796	-3719.54932	978.23047	159.16200	0.00000	0.00000	0.00000	0.00000	0.00000	0.00000	-3767.77344	610.46356	114.12096	-3803.16455	559.78796	120.79449	-3862.81055	499.54974	146.74014	-3836.22803	518.68597	252.71805	-3868.09790	319.62814	120.25295	0.00000	0.00000	0.00000	0.00000	0.00000	0.00000	-3913.55103	262.91135	135.47264	0.00000	0.00000	0.00000	0.00000	0.00000	0.00000	0.00000	0.00000	0.00000	-3845.85303	510.01666	139.22600	0.00000	0.00000	0.00000	0.00000	0.00000	0.00000
